# xmcd
#
# Track frame offsets: 
#        150
#        19510
#        45082
#        67502
#        87680
#        106842
#        126070
#        148450
#        167925
#        186765
#        207385
#
# Disc length: 3107 seconds
#
# Revision: 1
# Processed by: cddbd v1.5.1PL2 Copyright (c) Steve Scherf et al.
# Submitted via: ExactAudioCopy v0.95b4
#
DISCID=920c210b
DTITLE=Bob Carlisle - Shades Of Grace
DYEAR=1996
DGENRE=Contemporary Christian
TTITLE0=On My Way To Paradise
TTITLE1=Butterfly Kisses
TTITLE2=I'm Gonna Be Ready
TTITLE3=Living Water
TTITLE4=One Man Revival
TTITLE5=You Must Have Been An Angel
TTITLE6=Man Of His Word
TTITLE7=It Is Well With My Soul
TTITLE8=On My Knees
TTITLE9=Mighty Love
TTITLE10=Butterfly Kisses (Country Remix)
EXTD=
EXTT0=
EXTT1=
EXTT2=
EXTT3=
EXTT4=
EXTT5=
EXTT6=
EXTT7=
EXTT8=
EXTT9=
EXTT10=
PLAYORDER=
